<svg xmlns="http://www.w3.org/2000/svg" enable-background="new 0 0 48 48" viewBox="0 0 48 48" id="mountain"><path d="M4,45h40c0.36,0,0.7-0.2,0.88-0.52c0.18-0.32,0.17-0.71-0.03-1.01l-10-16C34.67,27.18,34.34,27,34,27s-0.67,0.18-0.85,0.47
		l-1.88,3.01L25,19.73V17h7c0.55,0,1-0.45,1-1v-5c0-0.55-0.45-1-1-1h-8c-0.55,0-1,0.45-1,1v8.73l-6.27,10.75l-1.88-3.01
		C14.67,27.18,14.34,27,14,27s-0.67,0.18-0.85,0.47l-10,16c-0.19,0.31-0.2,0.7-0.03,1.01C3.3,44.8,3.64,45,4,45z M25,12h6v3h-6V12z
		 M34,29.89L42.2,43h-3.62l-6.17-10.57L34,29.89z M24,21.98L36.26,43H11.74L24,21.98z M14,29.89l1.59,2.54L9.43,43H5.8L14,29.89z"></path></svg>